# xmcd
#
# Track frame offsets:
#	150
#	4430
#	16415
#	36172
#	52667
#	74310
#	100740
#	104670
#	121977
#	142757
#	147152
#	161990
#	180752
#	193950
#	211980
#	229972
#
# Disc length: 3190 seconds
#
# Revision: 5
# Processed by: cddbd v1.5.2PL0 Copyright (c) Steve Scherf et al.
# Submitted via: audiograbber 1.83.01
#
DISCID=dd0c7410
DTITLE=Various Artist - Heavy Loungin
DYEAR=2000
DGENRE=Hip Hop
TTITLE0=Suckerpuss - Fat Ditty (Skit)
TTITLE1=Mr Live - The Good Life
TTITLE2=Unsung Heroes - Transatlantic (The Nextmen Remix)
TTITLE3=Mike Zoot - Jungle Punch
TTITLE4=All Natural and Lone Catalyst - Renaissance
TTITLE5=Flyting Pupa - Can It
TTITLE6=Dual Control - Full Fat (Skit)
TTITLE7=Jahbaz - Dirty Jungle
TTITLE8=Lone Catalyst - Jimmy Hats
TTITLE9=Martin Brew - Fat Back (Skit)
TTITLE10=Frankenstein - Rock The House
TTITLE11=Aboriginals - Try These
TTITLE12=Beyond There - Take It Where?
TTITLE13=Walkin' Large - When I Flow
TTITLE14=Funky Fresh Few - Through These Veins
TTITLE15=Sandro - Fat Land (Skit)
EXTD=
EXTT0=
EXTT1=
EXTT2=
EXTT3=
EXTT4=
EXTT5=
EXTT6=
EXTT7=
EXTT8=
EXTT9=
EXTT10=
EXTT11=
EXTT12=
EXTT13=
EXTT14=
EXTT15=
PLAYORDER=
